{"title":"Stake Land 2011 HDRip Xvid AC3 UnKnOwN","uid":6528249,"size":1378486102,"categoryP":"video","categoryS":"movies","magnet":"?xt=urn:btih:596148ee1f2254f21f8ee138ced25bcaa8de473d&amp;dn=Stake+Land+2011+HDRip+Xvid+AC3+UnKnOwN&amp;tr=udp%3A%2F%2Ftracker.openbittorrent.com%3A80&amp;tr=udp%3A%2F%2Fopen.demonii.com%3A1337&amp;tr=udp%3A%2F%2Ftracker.coppersurfer.tk%3A6969&amp;tr=udp%3A%2F%2Fexodus.desync.com%3A6969","seeders":1,"leechers":0,"uploader":"HeroMaster","files":-1,"time":1310228835,"description":"Stake Land 2011 HDRip Xvid AC3 UnKnOwN\n\n\n:: NOTES ::\n\n\nEncoded By .......:UnKnOwN \nRelease Date ......... 2011\nRuntime ..........:1:34 \nSource ......... Cmac87\nIMDb URL .........:http://www.imdb.com/title/tt1464580/ \nFile Type ......... Single AVI\nLanguage .........:English \nPS3 Compatible ....... I made sure it wasn't(:\nFile Size ........:1.28gb \nGenre ......... Horror\n\n\nVideo\nID: 0\nFormat: MPEG-4 Visual\nFormat profile: Advanced Simple@L5\nFormat settings, BVOP: Yes\nFormat settings, QPel: No\nFormat settings, GMC: No warppoints\nFormat settings, Matrix: Default (H.263)\nCodec ID: XVID\nCodec ID/Hint: XviD\nDuration: 1h 34mn\nBit rate: 1 488 Kbps\nWidth: 720 pixels\nHeight: 304 pixels\nDisplay aspect ratio: 2.35:1\nFrame rate: 23.976 fps\nColor space: YUV\nChroma subsampling: 4:2:0\nBit depth: 8 bits\nScan type: Progressive\nBits/(Pixel*Frame): 0.284\nStream size: 1 006 MiB (76%)\nWriting library: XviD 1.2.1 (UTC 2008-12-04)\n\n\nAudio\nID: 1\nFormat: AC-3\nFormat/Info: Audio Coding 3\nMode extension: CM (complete main)\nCodec ID: 2000\nDuration: 1h 38mn\nBit rate mode: Constant\nBit rate: 448 Kbps\nChannel(s): 6 channels\nChannel positions: Front: L C R, Side: L R, LFE\nSampling rate: 48.0 KHz\nBit depth: 16 bits\nStream size: 303 MiB (23%)\nAlignment: Aligned on interleaves\nInterleave, duration: 42 ms (1.00 video frame)\n\n\n:: SYSPNOSIS ::\n\n\nMartin was a normal teenage boy before the country collapsed in an empty pit of economic and political disaster A vampire epidemic has swept across what is left of the nation's abandoned towns and cities, and it's up to Mistera death dealing, rogue vampire hunter, to get Martin safely north to Canada, the continent's New Eden.\n\n\n:: More Information ::\n\n &lt;a href=&quot;\nhttp://leetleech.org/images/90967736935585876844.png&quot; rel=&quot;nofollow&quot; target=&quot;_NEW&quot;&gt;\nhttp://leetleech.org/images/90967736935585876844.png&lt;/a&gt;\n\n\n:: Screens ::\n\n &lt;a href=&quot;\nhttp://leetleech.org/images/07639265066968588580.png&quot; rel=&quot;nofollow&quot; target=&quot;_NEW&quot;&gt;\nhttp://leetleech.org/images/07639265066968588580.png&lt;/a&gt;\n &lt;a href=&quot;\nhttp://leetleech.org/images/58220970972462560250.png&quot; rel=&quot;nofollow&quot; target=&quot;_NEW&quot;&gt;\nhttp://leetleech.org/images/58220970972462560250.png&lt;/a&gt;\n &lt;a href=&quot;\nhttp://leetleech.org/images/27358378924942718989.png&quot; rel=&quot;nofollow&quot; target=&quot;_NEW&quot;&gt;\nhttp://leetleech.org/images/27358378924942718989.png&lt;/a&gt;\n\n\nENJOY!","torrent":{"xt":"urn:btih:596148ee1f2254f21f8ee138ced25bcaa8de473d","amp;dn":"Stake+Land+2011+HDRip+Xvid+AC3+UnKnOwN","amp;tr":["udp%3A%2F%2Ftracker.openbittorrent.com%3A80","udp%3A%2F%2Fopen.demonii.com%3A1337","udp%3A%2F%2Ftracker.coppersurfer.tk%3A6969","udp%3A%2F%2Fexodus.desync.com%3A6969"],"infoHash":"596148ee1f2254f21f8ee138ced25bcaa8de473d","infoHashBuffer":{"type":"Buffer","data":[89,97,72,238,31,34,84,242,31,142,225,56,206,210,91,202,168,222,71,61]},"announce":[],"urlList":[]}}